<mxfile host="app.diagrams.net" agent="Mozilla/5.0 (Windows NT 10.0; Win64; x64) AppleWebKit/537.36 (KHTML, like Gecko) Chrome/133.0.0.0 Safari/537.36" version="26.0.16">
  <diagram name="Trang-1" id="adDTdVnoxvWeYOPs9I1b">
    <mxGraphModel dx="2327" dy="1915" grid="1" gridSize="10" guides="1" tooltips="1" connect="1" arrows="1" fold="1" page="1" pageScale="1" pageWidth="827" pageHeight="1169" math="0" shadow="0">
      <root>
        <mxCell id="0" />
        <mxCell id="1" parent="0" />
        <mxCell id="VKo95P6fA7wKh8PuvydT-2" value="Đăng nhập" style="ellipse;whiteSpace=wrap;html=1;" vertex="1" parent="1">
          <mxGeometry x="330" y="190" width="120" height="80" as="geometry" />
        </mxCell>
        <mxCell id="VKo95P6fA7wKh8PuvydT-3" value="Đăng ký tài khoản" style="ellipse;whiteSpace=wrap;html=1;" vertex="1" parent="1">
          <mxGeometry x="50" y="-10" width="120" height="80" as="geometry" />
        </mxCell>
        <mxCell id="VKo95P6fA7wKh8PuvydT-5" value="Đọc sách điện tử" style="ellipse;whiteSpace=wrap;html=1;" vertex="1" parent="1">
          <mxGeometry x="50" y="300" width="120" height="80" as="geometry" />
        </mxCell>
        <mxCell id="VKo95P6fA7wKh8PuvydT-6" value="Đăng ký mượn sách" style="ellipse;whiteSpace=wrap;html=1;" vertex="1" parent="1">
          <mxGeometry x="50" y="460" width="120" height="80" as="geometry" />
        </mxCell>
        <mxCell id="VKo95P6fA7wKh8PuvydT-7" value="Thống kê sách mượn" style="ellipse;whiteSpace=wrap;html=1;" vertex="1" parent="1">
          <mxGeometry x="300" y="-110" width="120" height="80" as="geometry" />
        </mxCell>
        <mxCell id="VKo95P6fA7wKh8PuvydT-8" value="Thêm sách" style="ellipse;whiteSpace=wrap;html=1;" vertex="1" parent="1">
          <mxGeometry x="460" y="-90" width="120" height="80" as="geometry" />
        </mxCell>
        <mxCell id="VKo95P6fA7wKh8PuvydT-9" value="Quản lý mượn trả sách" style="ellipse;whiteSpace=wrap;html=1;" vertex="1" parent="1">
          <mxGeometry x="580" y="-30" width="120" height="80" as="geometry" />
        </mxCell>
        <mxCell id="VKo95P6fA7wKh8PuvydT-10" value="Xem số sách còn trong kho" style="ellipse;whiteSpace=wrap;html=1;" vertex="1" parent="1">
          <mxGeometry x="580" y="100" width="120" height="80" as="geometry" />
        </mxCell>
        <mxCell id="VKo95P6fA7wKh8PuvydT-11" value="Thống kê lượt truy cập" style="ellipse;whiteSpace=wrap;html=1;" vertex="1" parent="1">
          <mxGeometry x="580" y="250" width="120" height="80" as="geometry" />
        </mxCell>
        <mxCell id="VKo95P6fA7wKh8PuvydT-12" value="Lưu trữ sách in" style="ellipse;whiteSpace=wrap;html=1;" vertex="1" parent="1">
          <mxGeometry x="580" y="390" width="120" height="80" as="geometry" />
        </mxCell>
        <mxCell id="VKo95P6fA7wKh8PuvydT-13" value="Lưu trữ sách điện tử" style="ellipse;whiteSpace=wrap;html=1;" vertex="1" parent="1">
          <mxGeometry x="580" y="510" width="120" height="80" as="geometry" />
        </mxCell>
        <mxCell id="VKo95P6fA7wKh8PuvydT-14" value="Sách được yêu thích nhất" style="ellipse;whiteSpace=wrap;html=1;" vertex="1" parent="1">
          <mxGeometry x="580" y="640" width="120" height="80" as="geometry" />
        </mxCell>
        <mxCell id="VKo95P6fA7wKh8PuvydT-15" value="" style="swimlane;startSize=0;" vertex="1" parent="1">
          <mxGeometry x="10" y="-160" width="790" height="920" as="geometry" />
        </mxCell>
        <mxCell id="VKo95P6fA7wKh8PuvydT-4" value="Tìm sách" style="ellipse;whiteSpace=wrap;html=1;" vertex="1" parent="VKo95P6fA7wKh8PuvydT-15">
          <mxGeometry x="40" y="300" width="120" height="80" as="geometry" />
        </mxCell>
        <mxCell id="VKo95P6fA7wKh8PuvydT-16" value="Độc giả" style="shape=umlActor;verticalLabelPosition=bottom;verticalAlign=top;html=1;outlineConnect=0;" vertex="1" parent="1">
          <mxGeometry x="-210" y="150" width="30" height="60" as="geometry" />
        </mxCell>
        <mxCell id="VKo95P6fA7wKh8PuvydT-18" value="" style="endArrow=none;html=1;rounded=0;exitX=0.5;exitY=0.5;exitDx=0;exitDy=0;exitPerimeter=0;entryX=0;entryY=0.5;entryDx=0;entryDy=0;" edge="1" parent="1" source="VKo95P6fA7wKh8PuvydT-16" target="VKo95P6fA7wKh8PuvydT-3">
          <mxGeometry width="50" height="50" relative="1" as="geometry">
            <mxPoint x="230" y="160" as="sourcePoint" />
            <mxPoint x="280" y="110" as="targetPoint" />
          </mxGeometry>
        </mxCell>
        <mxCell id="VKo95P6fA7wKh8PuvydT-19" value="" style="endArrow=none;html=1;rounded=0;entryX=0.035;entryY=0.392;entryDx=0;entryDy=0;entryPerimeter=0;exitX=0.5;exitY=0.5;exitDx=0;exitDy=0;exitPerimeter=0;" edge="1" parent="1" source="VKo95P6fA7wKh8PuvydT-16" target="VKo95P6fA7wKh8PuvydT-4">
          <mxGeometry width="50" height="50" relative="1" as="geometry">
            <mxPoint x="230" y="160" as="sourcePoint" />
            <mxPoint x="280" y="110" as="targetPoint" />
          </mxGeometry>
        </mxCell>
        <mxCell id="VKo95P6fA7wKh8PuvydT-20" value="" style="endArrow=none;html=1;rounded=0;exitX=0.5;exitY=0.5;exitDx=0;exitDy=0;exitPerimeter=0;entryX=0;entryY=0.5;entryDx=0;entryDy=0;" edge="1" parent="1" source="VKo95P6fA7wKh8PuvydT-16" target="VKo95P6fA7wKh8PuvydT-5">
          <mxGeometry width="50" height="50" relative="1" as="geometry">
            <mxPoint x="230" y="260" as="sourcePoint" />
            <mxPoint x="280" y="210" as="targetPoint" />
          </mxGeometry>
        </mxCell>
        <mxCell id="VKo95P6fA7wKh8PuvydT-21" value="" style="endArrow=none;html=1;rounded=0;exitX=0.5;exitY=0.5;exitDx=0;exitDy=0;exitPerimeter=0;entryX=0;entryY=0.5;entryDx=0;entryDy=0;" edge="1" parent="1" source="VKo95P6fA7wKh8PuvydT-16" target="VKo95P6fA7wKh8PuvydT-6">
          <mxGeometry width="50" height="50" relative="1" as="geometry">
            <mxPoint x="230" y="360" as="sourcePoint" />
            <mxPoint x="280" y="310" as="targetPoint" />
          </mxGeometry>
        </mxCell>
        <mxCell id="VKo95P6fA7wKh8PuvydT-22" value="Thủ thư" style="shape=umlActor;verticalLabelPosition=bottom;verticalAlign=top;html=1;outlineConnect=0;" vertex="1" parent="1">
          <mxGeometry x="840" y="-260" width="30" height="60" as="geometry" />
        </mxCell>
        <mxCell id="VKo95P6fA7wKh8PuvydT-23" value="" style="endArrow=none;html=1;rounded=0;entryX=0;entryY=1;entryDx=0;entryDy=0;entryPerimeter=0;exitX=0.652;exitY=0.057;exitDx=0;exitDy=0;exitPerimeter=0;" edge="1" parent="1" source="VKo95P6fA7wKh8PuvydT-7" target="VKo95P6fA7wKh8PuvydT-22">
          <mxGeometry width="50" height="50" relative="1" as="geometry">
            <mxPoint x="590" y="20" as="sourcePoint" />
            <mxPoint x="640" y="-30" as="targetPoint" />
          </mxGeometry>
        </mxCell>
        <mxCell id="VKo95P6fA7wKh8PuvydT-24" value="" style="endArrow=none;html=1;rounded=0;exitX=1;exitY=0;exitDx=0;exitDy=0;" edge="1" parent="1" source="VKo95P6fA7wKh8PuvydT-8">
          <mxGeometry width="50" height="50" relative="1" as="geometry">
            <mxPoint x="590" y="20" as="sourcePoint" />
            <mxPoint x="840" y="-200" as="targetPoint" />
          </mxGeometry>
        </mxCell>
        <mxCell id="VKo95P6fA7wKh8PuvydT-25" value="" style="endArrow=none;html=1;rounded=0;exitX=1;exitY=0;exitDx=0;exitDy=0;" edge="1" parent="1" source="VKo95P6fA7wKh8PuvydT-9" target="VKo95P6fA7wKh8PuvydT-22">
          <mxGeometry width="50" height="50" relative="1" as="geometry">
            <mxPoint x="590" y="20" as="sourcePoint" />
            <mxPoint x="640" y="-30" as="targetPoint" />
          </mxGeometry>
        </mxCell>
        <mxCell id="VKo95P6fA7wKh8PuvydT-26" value="" style="endArrow=none;html=1;rounded=0;exitX=1;exitY=0;exitDx=0;exitDy=0;" edge="1" parent="1" source="VKo95P6fA7wKh8PuvydT-10" target="VKo95P6fA7wKh8PuvydT-22">
          <mxGeometry width="50" height="50" relative="1" as="geometry">
            <mxPoint x="590" y="120" as="sourcePoint" />
            <mxPoint x="640" y="70" as="targetPoint" />
          </mxGeometry>
        </mxCell>
        <mxCell id="VKo95P6fA7wKh8PuvydT-27" value="Hệ thống" style="shape=umlActor;verticalLabelPosition=bottom;verticalAlign=top;html=1;outlineConnect=0;" vertex="1" parent="1">
          <mxGeometry x="950" y="430" width="30" height="60" as="geometry" />
        </mxCell>
        <mxCell id="VKo95P6fA7wKh8PuvydT-28" value="" style="endArrow=none;html=1;rounded=0;exitX=1;exitY=0.5;exitDx=0;exitDy=0;" edge="1" parent="1" source="VKo95P6fA7wKh8PuvydT-11" target="VKo95P6fA7wKh8PuvydT-27">
          <mxGeometry width="50" height="50" relative="1" as="geometry">
            <mxPoint x="590" y="520" as="sourcePoint" />
            <mxPoint x="640" y="470" as="targetPoint" />
          </mxGeometry>
        </mxCell>
        <mxCell id="VKo95P6fA7wKh8PuvydT-29" value="" style="endArrow=none;html=1;rounded=0;entryX=0;entryY=0.3333333333333333;entryDx=0;entryDy=0;entryPerimeter=0;exitX=1;exitY=0.5;exitDx=0;exitDy=0;" edge="1" parent="1" source="VKo95P6fA7wKh8PuvydT-12" target="VKo95P6fA7wKh8PuvydT-27">
          <mxGeometry width="50" height="50" relative="1" as="geometry">
            <mxPoint x="590" y="520" as="sourcePoint" />
            <mxPoint x="640" y="470" as="targetPoint" />
          </mxGeometry>
        </mxCell>
        <mxCell id="VKo95P6fA7wKh8PuvydT-30" value="" style="endArrow=none;html=1;rounded=0;exitX=1;exitY=0.5;exitDx=0;exitDy=0;" edge="1" parent="1" source="VKo95P6fA7wKh8PuvydT-13">
          <mxGeometry width="50" height="50" relative="1" as="geometry">
            <mxPoint x="590" y="520" as="sourcePoint" />
            <mxPoint x="950" y="450" as="targetPoint" />
          </mxGeometry>
        </mxCell>
        <mxCell id="VKo95P6fA7wKh8PuvydT-31" value="" style="endArrow=none;html=1;rounded=0;entryX=0;entryY=0.3333333333333333;entryDx=0;entryDy=0;entryPerimeter=0;exitX=1;exitY=0.5;exitDx=0;exitDy=0;" edge="1" parent="1" source="VKo95P6fA7wKh8PuvydT-14" target="VKo95P6fA7wKh8PuvydT-27">
          <mxGeometry width="50" height="50" relative="1" as="geometry">
            <mxPoint x="590" y="520" as="sourcePoint" />
            <mxPoint x="640" y="470" as="targetPoint" />
          </mxGeometry>
        </mxCell>
        <mxCell id="VKo95P6fA7wKh8PuvydT-33" value="&amp;lt;&amp;lt;include&amp;gt;&amp;gt;" style="html=1;verticalAlign=bottom;endArrow=open;dashed=1;endSize=8;curved=0;rounded=0;exitX=1.002;exitY=0.613;exitDx=0;exitDy=0;exitPerimeter=0;entryX=0;entryY=0.5;entryDx=0;entryDy=0;" edge="1" parent="1" source="VKo95P6fA7wKh8PuvydT-4" target="VKo95P6fA7wKh8PuvydT-2">
          <mxGeometry relative="1" as="geometry">
            <mxPoint x="440" y="370" as="sourcePoint" />
            <mxPoint x="360" y="370" as="targetPoint" />
          </mxGeometry>
        </mxCell>
        <mxCell id="VKo95P6fA7wKh8PuvydT-34" value="&amp;lt;&amp;lt;include&amp;gt;&amp;gt;" style="html=1;verticalAlign=bottom;endArrow=open;dashed=1;endSize=8;curved=0;rounded=0;exitX=1;exitY=0.5;exitDx=0;exitDy=0;entryX=0;entryY=1;entryDx=0;entryDy=0;" edge="1" parent="1" source="VKo95P6fA7wKh8PuvydT-5" target="VKo95P6fA7wKh8PuvydT-2">
          <mxGeometry relative="1" as="geometry">
            <mxPoint x="440" y="270" as="sourcePoint" />
            <mxPoint x="330" y="230" as="targetPoint" />
          </mxGeometry>
        </mxCell>
        <mxCell id="VKo95P6fA7wKh8PuvydT-35" value="&amp;lt;&amp;lt;include&amp;gt;&amp;gt;" style="html=1;verticalAlign=bottom;endArrow=open;dashed=1;endSize=8;curved=0;rounded=0;entryX=0.408;entryY=0.948;entryDx=0;entryDy=0;entryPerimeter=0;exitX=0.982;exitY=0.403;exitDx=0;exitDy=0;exitPerimeter=0;" edge="1" parent="1" source="VKo95P6fA7wKh8PuvydT-6" target="VKo95P6fA7wKh8PuvydT-2">
          <mxGeometry relative="1" as="geometry">
            <mxPoint x="440" y="370" as="sourcePoint" />
            <mxPoint x="360" y="370" as="targetPoint" />
          </mxGeometry>
        </mxCell>
        <mxCell id="VKo95P6fA7wKh8PuvydT-36" value="&amp;lt;&amp;lt;include&amp;gt;&amp;gt;" style="html=1;verticalAlign=bottom;endArrow=open;dashed=1;endSize=8;curved=0;rounded=0;exitX=0.5;exitY=1;exitDx=0;exitDy=0;entryX=0.5;entryY=0;entryDx=0;entryDy=0;" edge="1" parent="1" source="VKo95P6fA7wKh8PuvydT-7" target="VKo95P6fA7wKh8PuvydT-2">
          <mxGeometry relative="1" as="geometry">
            <mxPoint x="510" y="180" as="sourcePoint" />
            <mxPoint x="430" y="180" as="targetPoint" />
          </mxGeometry>
        </mxCell>
        <mxCell id="VKo95P6fA7wKh8PuvydT-37" value="&amp;lt;&amp;lt;include&amp;gt;&amp;gt;" style="html=1;verticalAlign=bottom;endArrow=open;dashed=1;endSize=8;curved=0;rounded=0;" edge="1" parent="1" source="VKo95P6fA7wKh8PuvydT-8" target="VKo95P6fA7wKh8PuvydT-2">
          <mxGeometry relative="1" as="geometry">
            <mxPoint x="510" y="180" as="sourcePoint" />
            <mxPoint x="430" y="180" as="targetPoint" />
          </mxGeometry>
        </mxCell>
        <mxCell id="VKo95P6fA7wKh8PuvydT-38" value="&amp;lt;&amp;lt;include&amp;gt;&amp;gt;" style="html=1;verticalAlign=bottom;endArrow=open;dashed=1;endSize=8;curved=0;rounded=0;exitX=0;exitY=1;exitDx=0;exitDy=0;entryX=1;entryY=0;entryDx=0;entryDy=0;" edge="1" parent="1" source="VKo95P6fA7wKh8PuvydT-9" target="VKo95P6fA7wKh8PuvydT-2">
          <mxGeometry relative="1" as="geometry">
            <mxPoint x="510" y="180" as="sourcePoint" />
            <mxPoint x="430" y="180" as="targetPoint" />
          </mxGeometry>
        </mxCell>
        <mxCell id="VKo95P6fA7wKh8PuvydT-39" value="&amp;lt;&amp;lt;include&amp;gt;&amp;gt;" style="html=1;verticalAlign=bottom;endArrow=open;dashed=1;endSize=8;curved=0;rounded=0;entryX=0.962;entryY=0.408;entryDx=0;entryDy=0;entryPerimeter=0;" edge="1" parent="1" source="VKo95P6fA7wKh8PuvydT-10" target="VKo95P6fA7wKh8PuvydT-2">
          <mxGeometry relative="1" as="geometry">
            <mxPoint x="510" y="180" as="sourcePoint" />
            <mxPoint x="430" y="180" as="targetPoint" />
          </mxGeometry>
        </mxCell>
      </root>
    </mxGraphModel>
  </diagram>
</mxfile>
